<?xml version="1.0" encoding="UTF-8" standalone="no"?>
<!-- Created with Inkscape (http://www.inkscape.org/) -->

<svg
   xmlns:dc="http://purl.org/dc/elements/1.1/"
   xmlns:cc="http://creativecommons.org/ns#"
   xmlns:rdf="http://www.w3.org/1999/02/22-rdf-syntax-ns#"
   xmlns:svg="http://www.w3.org/2000/svg"
   xmlns="http://www.w3.org/2000/svg"
   xmlns:xlink="http://www.w3.org/1999/xlink"
   xmlns:sodipodi="http://sodipodi.sourceforge.net/DTD/sodipodi-0.dtd"
   xmlns:inkscape="http://www.inkscape.org/namespaces/inkscape"
   width="121.65mm"
   height="58.65271mm"
   viewBox="0 0 121.65 58.65271"
   version="1.1"
   id="svg5711"
   inkscape:version="0.92.0 r15299"
   sodipodi:docname="aloft.svg">
  <defs
     id="defs5705"><path
   d="M 454.9,97.5 V 88 C 446.3,87.2 439.5,86.5 433,85.9 v -14 c -4.2,-0.5 -6.3,-0.8 -10.4,-1.3 V 85 c -6,-0.6 -3.3,-0.3 -11.1,-1 v 9.8 c 7.8,0.7 5.1,0.4 11.1,0.9 0,0 0,44.4 0,52.7 0,19.6 22.1,22.2 24.3,22.4 v -9.3 C 442.8,160.1 433,158 433,147.2 c 0,-7.1 0,-51.6 0,-51.6 6.5,0.6 13.3,1.1 21.9,1.9"
   id="SVGID_1_"
   inkscape:connector-curvature="0" />
<rect
   height="220.2"
   width="456.60001"
   y="19.4"
   x="20"
   id="SVGID_3_" />
<path
   d="m 188.5,169.9 c 0,-49.8 0,-99.8 0,-149.5 4.2,0.6 6.3,0.8 10.6,1.4 0,49.3 0,98.8 0,148.1 -4.3,0 -6.4,0 -10.6,0"
   id="SVGID_5_"
   inkscape:connector-curvature="0" />
<rect
   height="220.2"
   width="456.60001"
   y="19.4"
   x="20"
   id="SVGID_7_" />
<path
   d="m 295.6,170 c -16.9,0 -25.5,0 -42.3,0 -17.2,0 -27,-8.5 -27,-28.7 0,-19.9 0,-29.9 0,-49.8 0,-20 9.3,-28.7 27.1,-27 16.9,1.7 25.3,2.5 42.2,4.2 17.4,1.7 25.8,12 25.8,29.7 0,18.2 0,27.4 0,45.6 -0.2,17.8 -8.7,26 -25.8,26 z m 15.1,-71.1 c 0,-12.1 -5.6,-18 -17.1,-19 -15.5,-1.4 -23.2,-2 -38.6,-3.4 -11.5,-1 -18,3.5 -18,17.2 0,18.6 0,27.8 0,46.4 0,13.4 6.9,18 18,18.1 15.6,0 23.1,0 38.8,0 10.6,0.1 16.9,-3.9 16.9,-15.8 0,-17.4 0,-26.1 0,-43.5 z"
   id="SVGID_9_"
   inkscape:connector-curvature="0" />
<rect
   height="220.2"
   width="456.60001"
   y="19.4"
   x="20"
   id="SVGID_11_" />
<path
   d="m 432,36.6 c -6.6,-1.1 -11.7,-1.9 -19.2,-0.5 -10,1.9 -31,6.6 -44.4,11.1 -2.4,0.7 -3.6,1.1 -6,1.9 -12.5,3.9 -21.5,6.9 -21.5,24.3 0,38.9 0,57.7 0,96.6 4.2,0 6.2,0 10.4,0 0,-33.3 0,-51.7 0,-81.2 15.9,1.3 23.9,2.1 41.9,3.6 v -10 c -18.1,-1.7 -26,-2.6 -41.9,-4.1 v -3.9 c 0,-10.3 3.5,-11.5 15.2,-15.3 2.5,-0.8 3.7,-1.2 6.2,-2 13.1,-4.4 33.6,-9.2 43.5,-11.2 5.7,-1.1 9.4,-0.6 15.6,0.4 1.7,0.3 2.6,0.4 4.4,0.6 V 37.3 C 434.5,37 433.6,36.8 432,36.6"
   id="SVGID_13_"
   inkscape:connector-curvature="0" />
<rect
   height="220.2"
   width="456.60001"
   y="19.4"
   x="20"
   id="SVGID_15_" />
<path
   d="m 140.1,124.6 c -19.7,2 -38.3,3.7 -58.1,5.8 -8.3,1 -14.6,6.9 -14.6,17 0,4.3 0.1,-0.6 0.1,3.7 0,7.8 5.8,13.6 15,13.6 14.5,0 29.1,0 43.6,0 11.1,0 14.3,-9.4 14.1,-18.3 -0.2,-9.3 -0.1,-12.3 -0.1,-21.8"
   id="SVGID_17_"
   inkscape:connector-curvature="0" />
<rect
   height="220.2"
   width="456.60001"
   y="19.4"
   x="20"
   id="SVGID_19_" />
<path
   d="m 55.8,154.8 c 0,-5.3 0,-4.4 0,-9.8 0,-13.9 9.2,-23.2 24,-25.4 20.3,-2.8 60.8,-7.4 60.8,-7.4 V 100.4 C 141,90.3 135.1,83.6 124,86.1 c -18.4,3.1 -35.7,5.4 -54.8,8.8 0,-4.4 0,-6.6 0,-11.3 18.5,-3.6 30.4,-5.5 48.7,-9 28.1,-5.5 33.6,4.4 33.6,23.7 0,15.6 -0.2,22.5 -0.1,38.2 0,0 0,3.7 0,8.1 0,12.8 6.6,18.4 9.3,19.2 1.1,-2.4 1.3,-5.5 1.3,-9.3 0,-10.7 0,-95.1 0,-114.3 0,-19.3 -13.8,-13.9 -26.1,-11 C 123.5,32 61,48.3 41.1,53.3 c -19.9,5 -20.7,11.5 -20.7,23.4 0,28.4 0,69.2 0,72.8 0,18.4 5.2,20.5 20.1,20.5 4.1,0 12.3,0 22.3,0 -4.2,-3.7 -7.1,-8.9 -7,-15.2"
   id="SVGID_21_"
   inkscape:connector-curvature="0" />
<rect
   height="220.2"
   width="456.60001"
   y="19.4"
   x="20"
   id="SVGID_23_" />
<polyline
   points="145.8,208 151,208 151,219.8 164.6,219.8 164.6,208 169.8,208 169.8,237.5 164.6,237.5             164.6,224.5 151,224.5 151,237.5 145.8,237.5 145.8,208       "
   id="SVGID_25_" />
<rect
   height="220.2"
   width="456.60001"
   y="19.4"
   x="20"
   id="SVGID_27_" />
<path
   d="m 203.8,207.3 c 9.1,-0.2 15.5,6 15.5,15.4 0,9.2 -6.4,15.3 -15.5,15.5 -9,0 -15.4,-6.1 -15.4,-15.3 0,-9.4 6.4,-15.6 15.4,-15.6 z m 0,26.2 c 6.1,0 10,-4.7 10,-10.9 0,-5.8 -4,-10.5 -10,-10.5 -6,0 -10,4.6 -10,10.5 0,6.2 4,10.9 10,10.9 z"
   id="SVGID_29_"
   inkscape:connector-curvature="0" />
<rect
   height="220.2"
   width="456.60001"
   y="19.4"
   x="20"
   id="SVGID_31_" />
<polyline
   points="243.8,212.8 234.9,212.8 234.9,208 257.9,208 257.9,212.8 249,212.8 249,237.5 243.8,237.5             243.8,212.8         "
   id="SVGID_33_" />
<rect
   height="220.2"
   width="456.60001"
   y="19.4"
   x="20"
   id="SVGID_35_" />
<polyline
   points="275.1,208 294.4,208 294.4,212.8 280.3,212.8 280.3,220 293.7,220 293.7,224.7 280.3,224.7             280.3,232.7 295.1,232.7 295.1,237.5 275.1,237.5 275.1,208       "
   id="SVGID_37_" />
<rect
   height="220.2"
   width="456.60001"
   y="19.4"
   x="20"
   id="SVGID_39_" />
<polyline
   points="313.9,208 319.1,208 319.1,232.7 331.5,232.7 331.5,237.5 313.9,237.5 313.9,208      "
   id="SVGID_41_" />
<rect
   height="220.2"
   width="456.60001"
   y="19.4"
   x="20"
   id="SVGID_43_" />
<path
   d="m 363.2,214.4 c -1.1,-1.6 -3.1,-2.3 -5.1,-2.3 -2.4,0 -4.8,1.1 -4.8,3.8 0,5.9 13.8,2.5 13.8,13 0,6.3 -4.9,9.4 -10.6,9.4 -3.6,0 -7.1,-1.1 -9.5,-4 l 3.9,-3.8 c 1.3,2 3.5,3.1 5.8,3.1 2.4,0 5.1,-1.3 5.1,-4 0,-6.4 -13.8,-2.8 -13.8,-13.3 0,-6.1 5.3,-8.9 10.7,-8.9 3,0 6.1,0.9 8.4,3 l -3.9,4"
   id="SVGID_45_"
   inkscape:connector-curvature="0" />
<rect
   height="220.2"
   width="456.60001"
   y="19.4"
   x="20"
   id="SVGID_47_" />
<path
   d="m 468.7,86.3 c 4.2,0 7.7,3.4 7.7,7.8 0,4.4 -3.5,7.8 -7.7,7.8 -4.2,0 -7.7,-3.4 -7.7,-7.8 -0.1,-4.5 3.4,-7.8 7.7,-7.8 z m 0,14.4 c 3.5,0 6.3,-2.9 6.3,-6.7 0,-3.8 -2.8,-6.7 -6.3,-6.7 -3.5,0 -6.3,2.9 -6.3,6.7 -0.1,3.8 2.7,6.7 6.3,6.7 z m -3,-11.2 h 3.4 c 2.1,0 3.2,0.9 3.2,2.6 0,1.7 -1,2.3 -2.4,2.5 l 2.6,4 H 471 l -2.4,-3.9 h -1.5 v 3.9 h -1.4 z m 1.4,4.1 h 1.4 c 1.2,0 2.4,-0.1 2.4,-1.5 0,-1.3 -1.1,-1.4 -2,-1.4 h -1.8 z"
   id="SVGID_49_"
   inkscape:connector-curvature="0" />
<rect
   height="220.2"
   width="456.60001"
   y="19.4"
   x="20"
   id="SVGID_51_" />

    <defs
   id="defs5934">
        <path
   d="m 468.7,86.3 c 4.2,0 7.7,3.4 7.7,7.8 0,4.4 -3.5,7.8 -7.7,7.8 -4.2,0 -7.7,-3.4 -7.7,-7.8 -0.1,-4.5 3.4,-7.8 7.7,-7.8 z m 0,14.4 c 3.5,0 6.3,-2.9 6.3,-6.7 0,-3.8 -2.8,-6.7 -6.3,-6.7 -3.5,0 -6.3,2.9 -6.3,6.7 -0.1,3.8 2.7,6.7 6.3,6.7 z m -3,-11.2 h 3.4 c 2.1,0 3.2,0.9 3.2,2.6 0,1.7 -1,2.3 -2.4,2.5 l 2.6,4 H 471 l -2.4,-3.9 h -1.5 v 3.9 h -1.4 z m 1.4,4.1 h 1.4 c 1.2,0 2.4,-0.1 2.4,-1.5 0,-1.3 -1.1,-1.4 -2,-1.4 h -1.8 z"
   id="path6140"
   inkscape:connector-curvature="0" />

    </defs>

    <clipPath
   id="SVGID_50_">
        <use
   id="use5936"
   style="overflow:visible"
   xlink:href="#SVGID_49_"
   x="0"
   y="0"
   width="100%"
   height="100%" />

    </clipPath>

    

    <defs
   id="defs5916">
        <path
   d="m 363.2,214.4 c -1.1,-1.6 -3.1,-2.3 -5.1,-2.3 -2.4,0 -4.8,1.1 -4.8,3.8 0,5.9 13.8,2.5 13.8,13 0,6.3 -4.9,9.4 -10.6,9.4 -3.6,0 -7.1,-1.1 -9.5,-4 l 3.9,-3.8 c 1.3,2 3.5,3.1 5.8,3.1 2.4,0 5.1,-1.3 5.1,-4 0,-6.4 -13.8,-2.8 -13.8,-13.3 0,-6.1 5.3,-8.9 10.7,-8.9 3,0 6.1,0.9 8.4,3 l -3.9,4"
   id="path6127"
   inkscape:connector-curvature="0" />

    </defs>

    <clipPath
   id="SVGID_46_">
        <use
   id="use5918"
   style="overflow:visible"
   xlink:href="#SVGID_45_"
   x="0"
   y="0"
   width="100%"
   height="100%" />

    </clipPath>

    

    <defs
   id="defs5898">
        <polyline
   points="313.9,208 319.1,208 319.1,232.7 331.5,232.7 331.5,237.5 313.9,237.5 313.9,208      "
   id="polyline6114" />

    </defs>

    <clipPath
   id="SVGID_42_">
        <use
   id="use5900"
   style="overflow:visible"
   xlink:href="#SVGID_41_"
   x="0"
   y="0"
   width="100%"
   height="100%" />

    </clipPath>

    

    <defs
   id="defs5880">
        <polyline
   points="275.1,208 294.4,208 294.4,212.8 280.3,212.8 280.3,220 293.7,220 293.7,224.7 280.3,224.7             280.3,232.7 295.1,232.7 295.1,237.5 275.1,237.5 275.1,208       "
   id="polyline6101" />

    </defs>

    <clipPath
   id="SVGID_38_">
        <use
   id="use5882"
   style="overflow:visible"
   xlink:href="#SVGID_37_"
   x="0"
   y="0"
   width="100%"
   height="100%" />

    </clipPath>

    

    <defs
   id="defs5862">
        <polyline
   points="243.8,212.8 234.9,212.8 234.9,208 257.9,208 257.9,212.8 249,212.8 249,237.5 243.8,237.5             243.8,212.8         "
   id="polyline6088" />

    </defs>

    <clipPath
   id="SVGID_34_">
        <use
   id="use5864"
   style="overflow:visible"
   xlink:href="#SVGID_33_"
   x="0"
   y="0"
   width="100%"
   height="100%" />

    </clipPath>

    

    <defs
   id="defs5844">
        <path
   d="m 203.8,207.3 c 9.1,-0.2 15.5,6 15.5,15.4 0,9.2 -6.4,15.3 -15.5,15.5 -9,0 -15.4,-6.1 -15.4,-15.3 0,-9.4 6.4,-15.6 15.4,-15.6 z m 0,26.2 c 6.1,0 10,-4.7 10,-10.9 0,-5.8 -4,-10.5 -10,-10.5 -6,0 -10,4.6 -10,10.5 0,6.2 4,10.9 10,10.9 z"
   id="path6075"
   inkscape:connector-curvature="0" />

    </defs>

    <clipPath
   id="SVGID_30_">
        <use
   id="use5846"
   style="overflow:visible"
   xlink:href="#SVGID_29_"
   x="0"
   y="0"
   width="100%"
   height="100%" />

    </clipPath>

    

    <defs
   id="defs5826">
        <polyline
   points="145.8,208 151,208 151,219.8 164.6,219.8 164.6,208 169.8,208 169.8,237.5 164.6,237.5             164.6,224.5 151,224.5 151,237.5 145.8,237.5 145.8,208       "
   id="polyline6062" />

    </defs>

    <clipPath
   id="SVGID_26_">
        <use
   id="use5828"
   style="overflow:visible"
   xlink:href="#SVGID_25_"
   x="0"
   y="0"
   width="100%"
   height="100%" />

    </clipPath>

    

    <defs
   id="defs5808">
        <path
   d="m 55.8,154.8 c 0,-5.3 0,-4.4 0,-9.8 0,-13.9 9.2,-23.2 24,-25.4 20.3,-2.8 60.8,-7.4 60.8,-7.4 V 100.4 C 141,90.3 135.1,83.6 124,86.1 c -18.4,3.1 -35.7,5.4 -54.8,8.8 0,-4.4 0,-6.6 0,-11.3 18.5,-3.6 30.4,-5.5 48.7,-9 28.1,-5.5 33.6,4.4 33.6,23.7 0,15.6 -0.2,22.5 -0.1,38.2 0,0 0,3.7 0,8.1 0,12.8 6.6,18.4 9.3,19.2 1.1,-2.4 1.3,-5.5 1.3,-9.3 0,-10.7 0,-95.1 0,-114.3 0,-19.3 -13.8,-13.9 -26.1,-11 C 123.5,32 61,48.3 41.1,53.3 c -19.9,5 -20.7,11.5 -20.7,23.4 0,28.4 0,69.2 0,72.8 0,18.4 5.2,20.5 20.1,20.5 4.1,0 12.3,0 22.3,0 -4.2,-3.7 -7.1,-8.9 -7,-15.2"
   id="path6049"
   inkscape:connector-curvature="0" />

    </defs>

    <clipPath
   id="SVGID_22_">
        <use
   id="use5810"
   style="overflow:visible"
   xlink:href="#SVGID_21_"
   x="0"
   y="0"
   width="100%"
   height="100%" />

    </clipPath>

    

    <defs
   id="defs5790">
        <path
   d="m 140.1,124.6 c -19.7,2 -38.3,3.7 -58.1,5.8 -8.3,1 -14.6,6.9 -14.6,17 0,4.3 0.1,-0.6 0.1,3.7 0,7.8 5.8,13.6 15,13.6 14.5,0 29.1,0 43.6,0 11.1,0 14.3,-9.4 14.1,-18.3 -0.2,-9.3 -0.1,-12.3 -0.1,-21.8"
   id="path6036"
   inkscape:connector-curvature="0" />

    </defs>

    <clipPath
   id="SVGID_18_">
        <use
   id="use5792"
   style="overflow:visible"
   xlink:href="#SVGID_17_"
   x="0"
   y="0"
   width="100%"
   height="100%" />

    </clipPath>

    

    <defs
   id="defs5772">
        <path
   d="m 432,36.6 c -6.6,-1.1 -11.7,-1.9 -19.2,-0.5 -10,1.9 -31,6.6 -44.4,11.1 -2.4,0.7 -3.6,1.1 -6,1.9 -12.5,3.9 -21.5,6.9 -21.5,24.3 0,38.9 0,57.7 0,96.6 4.2,0 6.2,0 10.4,0 0,-33.3 0,-51.7 0,-81.2 15.9,1.3 23.9,2.1 41.9,3.6 v -10 c -18.1,-1.7 -26,-2.6 -41.9,-4.1 v -3.9 c 0,-10.3 3.5,-11.5 15.2,-15.3 2.5,-0.8 3.7,-1.2 6.2,-2 13.1,-4.4 33.6,-9.2 43.5,-11.2 5.7,-1.1 9.4,-0.6 15.6,0.4 1.7,0.3 2.6,0.4 4.4,0.6 V 37.3 C 434.5,37 433.6,36.8 432,36.6"
   id="path6023"
   inkscape:connector-curvature="0" />

    </defs>

    <clipPath
   id="SVGID_14_">
        <use
   id="use5774"
   style="overflow:visible"
   xlink:href="#SVGID_13_"
   x="0"
   y="0"
   width="100%"
   height="100%" />

    </clipPath>

    

    <defs
   id="defs5754">
        <path
   d="m 295.6,170 c -16.9,0 -25.5,0 -42.3,0 -17.2,0 -27,-8.5 -27,-28.7 0,-19.9 0,-29.9 0,-49.8 0,-20 9.3,-28.7 27.1,-27 16.9,1.7 25.3,2.5 42.2,4.2 17.4,1.7 25.8,12 25.8,29.7 0,18.2 0,27.4 0,45.6 -0.2,17.8 -8.7,26 -25.8,26 z m 15.1,-71.1 c 0,-12.1 -5.6,-18 -17.1,-19 -15.5,-1.4 -23.2,-2 -38.6,-3.4 -11.5,-1 -18,3.5 -18,17.2 0,18.6 0,27.8 0,46.4 0,13.4 6.9,18 18,18.1 15.6,0 23.1,0 38.8,0 10.6,0.1 16.9,-3.9 16.9,-15.8 0,-17.4 0,-26.1 0,-43.5 z"
   id="path6010"
   inkscape:connector-curvature="0" />

    </defs>

    <clipPath
   id="SVGID_10_">
        <use
   id="use5756"
   style="overflow:visible"
   xlink:href="#SVGID_9_"
   x="0"
   y="0"
   width="100%"
   height="100%" />

    </clipPath>

    

    <defs
   id="defs5736">
        <path
   d="m 188.5,169.9 c 0,-49.8 0,-99.8 0,-149.5 4.2,0.6 6.3,0.8 10.6,1.4 0,49.3 0,98.8 0,148.1 -4.3,0 -6.4,0 -10.6,0"
   id="path5997"
   inkscape:connector-curvature="0" />

    </defs>

    <clipPath
   id="SVGID_6_">
        <use
   id="use5738"
   style="overflow:visible"
   xlink:href="#SVGID_5_"
   x="0"
   y="0"
   width="100%"
   height="100%" />

    </clipPath>

    

    <defs
   id="defs5718">
        <path
   d="M 454.9,97.5 V 88 C 446.3,87.2 439.5,86.5 433,85.9 v -14 c -4.2,-0.5 -6.3,-0.8 -10.4,-1.3 V 85 c -6,-0.6 -3.3,-0.3 -11.1,-1 v 9.8 c 7.8,0.7 5.1,0.4 11.1,0.9 0,0 0,44.4 0,52.7 0,19.6 22.1,22.2 24.3,22.4 v -9.3 C 442.8,160.1 433,158 433,147.2 c 0,-7.1 0,-51.6 0,-51.6 6.5,0.6 13.3,1.1 21.9,1.9"
   id="path5984"
   inkscape:connector-curvature="0" />

    </defs>

    <clipPath
   id="SVGID_2_">
        <use
   id="use5720"
   style="overflow:visible"
   xlink:href="#SVGID_1_"
   x="0"
   y="0"
   width="100%"
   height="100%" />

    </clipPath>

    

        <defs
   id="defs5724">
            <rect
   id="rect5989"
   x="20"
   y="19.4"
   width="456.60001"
   height="220.2" />

        </defs>

        <clipPath
   id="SVGID_4_">
            <use
   height="100%"
   width="100%"
   y="0"
   x="0"
   xlink:href="#SVGID_3_"
   style="overflow:visible"
   id="use5726" />

        </clipPath>

        
    
        <defs
   id="defs5742">
            <rect
   id="rect6002"
   x="20"
   y="19.4"
   width="456.60001"
   height="220.2" />

        </defs>

        <clipPath
   id="SVGID_8_">
            <use
   height="100%"
   width="100%"
   y="0"
   x="0"
   xlink:href="#SVGID_7_"
   style="overflow:visible"
   id="use5744" />

        </clipPath>

        
    
        <defs
   id="defs5760">
            <rect
   id="rect6015"
   x="20"
   y="19.4"
   width="456.60001"
   height="220.2" />

        </defs>

        <clipPath
   id="SVGID_12_">
            <use
   height="100%"
   width="100%"
   y="0"
   x="0"
   xlink:href="#SVGID_11_"
   style="overflow:visible"
   id="use5762" />

        </clipPath>

        
    
        <defs
   id="defs5778">
            <rect
   id="rect6028"
   x="20"
   y="19.4"
   width="456.60001"
   height="220.2" />

        </defs>

        <clipPath
   id="SVGID_16_">
            <use
   height="100%"
   width="100%"
   y="0"
   x="0"
   xlink:href="#SVGID_15_"
   style="overflow:visible"
   id="use5780" />

        </clipPath>

        
    
        <defs
   id="defs5796">
            <rect
   id="rect6041"
   x="20"
   y="19.4"
   width="456.60001"
   height="220.2" />

        </defs>

        <clipPath
   id="SVGID_20_">
            <use
   height="100%"
   width="100%"
   y="0"
   x="0"
   xlink:href="#SVGID_19_"
   style="overflow:visible"
   id="use5798" />

        </clipPath>

        
    
        <defs
   id="defs5814">
            <rect
   id="rect6054"
   x="20"
   y="19.4"
   width="456.60001"
   height="220.2" />

        </defs>

        <clipPath
   id="SVGID_24_">
            <use
   height="100%"
   width="100%"
   y="0"
   x="0"
   xlink:href="#SVGID_23_"
   style="overflow:visible"
   id="use5816" />

        </clipPath>

        
    
        <defs
   id="defs5832">
            <rect
   id="rect6067"
   x="20"
   y="19.4"
   width="456.60001"
   height="220.2" />

        </defs>

        <clipPath
   id="SVGID_28_">
            <use
   height="100%"
   width="100%"
   y="0"
   x="0"
   xlink:href="#SVGID_27_"
   style="overflow:visible"
   id="use5834" />

        </clipPath>

        
    
        <defs
   id="defs5850">
            <rect
   id="rect6080"
   x="20"
   y="19.4"
   width="456.60001"
   height="220.2" />

        </defs>

        <clipPath
   id="SVGID_32_">
            <use
   height="100%"
   width="100%"
   y="0"
   x="0"
   xlink:href="#SVGID_31_"
   style="overflow:visible"
   id="use5852" />

        </clipPath>

        
    
        <defs
   id="defs5868">
            <rect
   id="rect6093"
   x="20"
   y="19.4"
   width="456.60001"
   height="220.2" />

        </defs>

        <clipPath
   id="SVGID_36_">
            <use
   height="100%"
   width="100%"
   y="0"
   x="0"
   xlink:href="#SVGID_35_"
   style="overflow:visible"
   id="use5870" />

        </clipPath>

        
    
        <defs
   id="defs5886">
            <rect
   id="rect6106"
   x="20"
   y="19.4"
   width="456.60001"
   height="220.2" />

        </defs>

        <clipPath
   id="SVGID_40_">
            <use
   height="100%"
   width="100%"
   y="0"
   x="0"
   xlink:href="#SVGID_39_"
   style="overflow:visible"
   id="use5888" />

        </clipPath>

        
    
        <defs
   id="defs5904">
            <rect
   id="rect6119"
   x="20"
   y="19.4"
   width="456.60001"
   height="220.2" />

        </defs>

        <clipPath
   id="SVGID_44_">
            <use
   height="100%"
   width="100%"
   y="0"
   x="0"
   xlink:href="#SVGID_43_"
   style="overflow:visible"
   id="use5906" />

        </clipPath>

        
    
        <defs
   id="defs5922">
            <rect
   id="rect6132"
   x="20"
   y="19.4"
   width="456.60001"
   height="220.2" />

        </defs>

        <clipPath
   id="SVGID_48_">
            <use
   height="100%"
   width="100%"
   y="0"
   x="0"
   xlink:href="#SVGID_47_"
   style="overflow:visible"
   id="use5924" />

        </clipPath>

        
    
        <defs
   id="defs5940">
            <rect
   id="rect6145"
   x="20"
   y="19.4"
   width="456.60001"
   height="220.2" />

        </defs>

        <clipPath
   id="SVGID_52_">
            <use
   height="100%"
   width="100%"
   y="0"
   x="0"
   xlink:href="#SVGID_51_"
   style="overflow:visible"
   id="use5942" />

        </clipPath>

        
    <path
   d="M 454.9,97.5 V 88 C 446.3,87.2 439.5,86.5 433,85.9 v -14 c -4.2,-0.5 -6.3,-0.8 -10.4,-1.3 V 85 c -6,-0.6 -3.3,-0.3 -11.1,-1 v 9.8 c 7.8,0.7 5.1,0.4 11.1,0.9 0,0 0,44.4 0,52.7 0,19.6 22.1,22.2 24.3,22.4 v -9.3 C 442.8,160.1 433,158 433,147.2 c 0,-7.1 0,-51.6 0,-51.6 6.5,0.6 13.3,1.1 21.9,1.9"
   id="SVGID_1_-2"
   inkscape:connector-curvature="0" />
<rect
   height="220.2"
   width="456.60001"
   y="19.4"
   x="20"
   id="SVGID_3_-6" />
<path
   d="m 188.5,169.9 c 0,-49.8 0,-99.8 0,-149.5 4.2,0.6 6.3,0.8 10.6,1.4 0,49.3 0,98.8 0,148.1 -4.3,0 -6.4,0 -10.6,0"
   id="SVGID_5_-4"
   inkscape:connector-curvature="0" />
<rect
   height="220.2"
   width="456.60001"
   y="19.4"
   x="20"
   id="SVGID_7_-3" />
<path
   d="m 295.6,170 c -16.9,0 -25.5,0 -42.3,0 -17.2,0 -27,-8.5 -27,-28.7 0,-19.9 0,-29.9 0,-49.8 0,-20 9.3,-28.7 27.1,-27 16.9,1.7 25.3,2.5 42.2,4.2 17.4,1.7 25.8,12 25.8,29.7 0,18.2 0,27.4 0,45.6 -0.2,17.8 -8.7,26 -25.8,26 z m 15.1,-71.1 c 0,-12.1 -5.6,-18 -17.1,-19 -15.5,-1.4 -23.2,-2 -38.6,-3.4 -11.5,-1 -18,3.5 -18,17.2 0,18.6 0,27.8 0,46.4 0,13.4 6.9,18 18,18.1 15.6,0 23.1,0 38.8,0 10.6,0.1 16.9,-3.9 16.9,-15.8 0,-17.4 0,-26.1 0,-43.5 z"
   id="SVGID_9_-8"
   inkscape:connector-curvature="0" />
<rect
   height="220.2"
   width="456.60001"
   y="19.4"
   x="20"
   id="SVGID_11_-3" />
<path
   d="m 432,36.6 c -6.6,-1.1 -11.7,-1.9 -19.2,-0.5 -10,1.9 -31,6.6 -44.4,11.1 -2.4,0.7 -3.6,1.1 -6,1.9 -12.5,3.9 -21.5,6.9 -21.5,24.3 0,38.9 0,57.7 0,96.6 4.2,0 6.2,0 10.4,0 0,-33.3 0,-51.7 0,-81.2 15.9,1.3 23.9,2.1 41.9,3.6 v -10 c -18.1,-1.7 -26,-2.6 -41.9,-4.1 v -3.9 c 0,-10.3 3.5,-11.5 15.2,-15.3 2.5,-0.8 3.7,-1.2 6.2,-2 13.1,-4.4 33.6,-9.2 43.5,-11.2 5.7,-1.1 9.4,-0.6 15.6,0.4 1.7,0.3 2.6,0.4 4.4,0.6 V 37.3 C 434.5,37 433.6,36.8 432,36.6"
   id="SVGID_13_-3"
   inkscape:connector-curvature="0" />
<rect
   height="220.2"
   width="456.60001"
   y="19.4"
   x="20"
   id="SVGID_15_-9" />
<path
   d="m 140.1,124.6 c -19.7,2 -38.3,3.7 -58.1,5.8 -8.3,1 -14.6,6.9 -14.6,17 0,4.3 0.1,-0.6 0.1,3.7 0,7.8 5.8,13.6 15,13.6 14.5,0 29.1,0 43.6,0 11.1,0 14.3,-9.4 14.1,-18.3 -0.2,-9.3 -0.1,-12.3 -0.1,-21.8"
   id="SVGID_17_-9"
   inkscape:connector-curvature="0" />
<rect
   height="220.2"
   width="456.60001"
   y="19.4"
   x="20"
   id="SVGID_19_-2" />
<path
   d="m 55.8,154.8 c 0,-5.3 0,-4.4 0,-9.8 0,-13.9 9.2,-23.2 24,-25.4 20.3,-2.8 60.8,-7.4 60.8,-7.4 V 100.4 C 141,90.3 135.1,83.6 124,86.1 c -18.4,3.1 -35.7,5.4 -54.8,8.8 0,-4.4 0,-6.6 0,-11.3 18.5,-3.6 30.4,-5.5 48.7,-9 28.1,-5.5 33.6,4.4 33.6,23.7 0,15.6 -0.2,22.5 -0.1,38.2 0,0 0,3.7 0,8.1 0,12.8 6.6,18.4 9.3,19.2 1.1,-2.4 1.3,-5.5 1.3,-9.3 0,-10.7 0,-95.1 0,-114.3 0,-19.3 -13.8,-13.9 -26.1,-11 C 123.5,32 61,48.3 41.1,53.3 c -19.9,5 -20.7,11.5 -20.7,23.4 0,28.4 0,69.2 0,72.8 0,18.4 5.2,20.5 20.1,20.5 4.1,0 12.3,0 22.3,0 -4.2,-3.7 -7.1,-8.9 -7,-15.2"
   id="SVGID_21_-2"
   inkscape:connector-curvature="0" />
<rect
   height="220.2"
   width="456.60001"
   y="19.4"
   x="20"
   id="SVGID_23_-1" />
<polyline
   points="145.8,208 151,208 151,219.8 164.6,219.8 164.6,208 169.8,208 169.8,237.5 164.6,237.5             164.6,224.5 151,224.5 151,237.5 145.8,237.5 145.8,208       "
   id="SVGID_25_-9" />
<rect
   height="220.2"
   width="456.60001"
   y="19.4"
   x="20"
   id="SVGID_27_-3" />
<path
   d="m 203.8,207.3 c 9.1,-0.2 15.5,6 15.5,15.4 0,9.2 -6.4,15.3 -15.5,15.5 -9,0 -15.4,-6.1 -15.4,-15.3 0,-9.4 6.4,-15.6 15.4,-15.6 z m 0,26.2 c 6.1,0 10,-4.7 10,-10.9 0,-5.8 -4,-10.5 -10,-10.5 -6,0 -10,4.6 -10,10.5 0,6.2 4,10.9 10,10.9 z"
   id="SVGID_29_-2"
   inkscape:connector-curvature="0" />
<rect
   height="220.2"
   width="456.60001"
   y="19.4"
   x="20"
   id="SVGID_31_-6" />
<polyline
   points="243.8,212.8 234.9,212.8 234.9,208 257.9,208 257.9,212.8 249,212.8 249,237.5 243.8,237.5             243.8,212.8         "
   id="SVGID_33_-3" />
<rect
   height="220.2"
   width="456.60001"
   y="19.4"
   x="20"
   id="SVGID_35_-8" />
<polyline
   points="275.1,208 294.4,208 294.4,212.8 280.3,212.8 280.3,220 293.7,220 293.7,224.7 280.3,224.7             280.3,232.7 295.1,232.7 295.1,237.5 275.1,237.5 275.1,208       "
   id="SVGID_37_-4" />
<rect
   height="220.2"
   width="456.60001"
   y="19.4"
   x="20"
   id="SVGID_39_-8" />
<polyline
   points="313.9,208 319.1,208 319.1,232.7 331.5,232.7 331.5,237.5 313.9,237.5 313.9,208      "
   id="SVGID_41_-0" />
<rect
   height="220.2"
   width="456.60001"
   y="19.4"
   x="20"
   id="SVGID_43_-2" />
<path
   d="m 363.2,214.4 c -1.1,-1.6 -3.1,-2.3 -5.1,-2.3 -2.4,0 -4.8,1.1 -4.8,3.8 0,5.9 13.8,2.5 13.8,13 0,6.3 -4.9,9.4 -10.6,9.4 -3.6,0 -7.1,-1.1 -9.5,-4 l 3.9,-3.8 c 1.3,2 3.5,3.1 5.8,3.1 2.4,0 5.1,-1.3 5.1,-4 0,-6.4 -13.8,-2.8 -13.8,-13.3 0,-6.1 5.3,-8.9 10.7,-8.9 3,0 6.1,0.9 8.4,3 l -3.9,4"
   id="SVGID_45_-1"
   inkscape:connector-curvature="0" />
<rect
   height="220.2"
   width="456.60001"
   y="19.4"
   x="20"
   id="SVGID_47_-2" />
<path
   d="m 468.7,86.3 c 4.2,0 7.7,3.4 7.7,7.8 0,4.4 -3.5,7.8 -7.7,7.8 -4.2,0 -7.7,-3.4 -7.7,-7.8 -0.1,-4.5 3.4,-7.8 7.7,-7.8 z m 0,14.4 c 3.5,0 6.3,-2.9 6.3,-6.7 0,-3.8 -2.8,-6.7 -6.3,-6.7 -3.5,0 -6.3,2.9 -6.3,6.7 -0.1,3.8 2.7,6.7 6.3,6.7 z m -3,-11.2 h 3.4 c 2.1,0 3.2,0.9 3.2,2.6 0,1.7 -1,2.3 -2.4,2.5 l 2.6,4 H 471 l -2.4,-3.9 h -1.5 v 3.9 h -1.4 z m 1.4,4.1 h 1.4 c 1.2,0 2.4,-0.1 2.4,-1.5 0,-1.3 -1.1,-1.4 -2,-1.4 h -1.8 z"
   id="SVGID_49_-2"
   inkscape:connector-curvature="0" />
<rect
   height="220.2"
   width="456.60001"
   y="19.4"
   x="20"
   id="SVGID_51_-5" />
</defs>
  <sodipodi:namedview
     id="base"
     pagecolor="#ffffff"
     bordercolor="#666666"
     borderopacity="1.0"
     inkscape:pageopacity="0.0"
     inkscape:pageshadow="2"
     inkscape:zoom="1.9671053"
     inkscape:cx="228"
     inkscape:cy="108.94999"
     inkscape:document-units="mm"
     inkscape:current-layer="layer1"
     showgrid="false"
     fit-margin-top="0"
     fit-margin-left="0"
     fit-margin-right="0"
     fit-margin-bottom="0"
     inkscape:window-width="1280"
     inkscape:window-height="744"
     inkscape:window-x="-4"
     inkscape:window-y="-4"
     inkscape:window-maximized="1" />
  <metadata
     id="metadata5708">
    <rdf:RDF>
      <cc:Work
         rdf:about="">
        <dc:format>image/svg+xml</dc:format>
        <dc:type
           rdf:resource="http://purl.org/dc/dcmitype/StillImage" />
        <dc:title></dc:title>
      </cc:Work>
    </rdf:RDF>
  </metadata>
  <g
     inkscape:label="Layer 1"
     inkscape:groupmode="layer"
     id="layer1"
     transform="translate(38.669871,-146.38914)">
    <g
       id="g6933"
       transform="matrix(0.26458333,0,0,0.26458333,-43.567369,141.49164)">
      <g
         id="g6513">
    <defs
   id="defs6498">
        <path
   d="M 454.9,97.5 V 88 C 446.3,87.2 439.5,86.5 433,85.9 v -14 c -4.2,-0.5 -6.3,-0.8 -10.4,-1.3 V 85 c -6,-0.6 -3.3,-0.3 -11.1,-1 v 9.8 c 7.8,0.7 5.1,0.4 11.1,0.9 0,0 0,44.4 0,52.7 0,19.6 22.1,22.2 24.3,22.4 v -9.3 C 442.8,160.1 433,158 433,147.2 c 0,-7.1 0,-51.6 0,-51.6 6.5,0.6 13.3,1.1 21.9,1.9"
   id="path6764"
   inkscape:connector-curvature="0" />

    </defs>

    <clipPath
   id="SVGID_2_-9">
        <use
   id="use6500"
   style="overflow:visible"
   xlink:href="#SVGID_1_-2"
   x="0"
   y="0"
   width="100%"
   height="100%" />

    </clipPath>

    <g
   id="g6511"
   clip-path="url(#SVGID_2_)"
   class="st0">
        <defs
   id="defs6504">
            <rect
   height="220.2"
   width="456.60001"
   y="19.4"
   x="20"
   id="rect6769" />

        </defs>

        <clipPath
   id="SVGID_4_-2">
            <use
   id="use6506"
   style="overflow:visible"
   xlink:href="#SVGID_3_-6"
   x="0"
   y="0"
   width="100%"
   height="100%" />

        </clipPath>

        <rect
   id="rect6509"
   clip-path="url(#SVGID_4_)"
   height="140"
   width="84.199997"
   class="st1"
   y="50.200001"
   x="391"
   style="fill:#42474b" />

    </g>

</g>
      <g
         id="g6531">
    <defs
   id="defs6516">
        <path
   d="m 188.5,169.9 c 0,-49.8 0,-99.8 0,-149.5 4.2,0.6 6.3,0.8 10.6,1.4 0,49.3 0,98.8 0,148.1 -4.3,0 -6.4,0 -10.6,0"
   id="path6777"
   inkscape:connector-curvature="0" />

    </defs>

    <clipPath
   id="SVGID_6_-6">
        <use
   id="use6518"
   style="overflow:visible"
   xlink:href="#SVGID_5_-4"
   x="0"
   y="0"
   width="100%"
   height="100%" />

    </clipPath>

    <g
   id="g6529"
   clip-path="url(#SVGID_6_)"
   class="st2">
        <defs
   id="defs6522">
            <rect
   height="220.2"
   width="456.60001"
   y="19.4"
   x="20"
   id="rect6782" />

        </defs>

        <clipPath
   id="SVGID_8_-3">
            <use
   id="use6524"
   style="overflow:visible"
   xlink:href="#SVGID_7_-3"
   x="0"
   y="0"
   width="100%"
   height="100%" />

        </clipPath>

        <rect
   id="rect6527"
   clip-path="url(#SVGID_8_)"
   height="190.3"
   width="51.299999"
   class="st3"
   x="168.10001"
   y="0"
   style="fill:#42474b" />

    </g>

</g>
      <g
         id="g6549">
    <defs
   id="defs6534">
        <path
   d="m 295.6,170 c -16.9,0 -25.5,0 -42.3,0 -17.2,0 -27,-8.5 -27,-28.7 0,-19.9 0,-29.9 0,-49.8 0,-20 9.3,-28.7 27.1,-27 16.9,1.7 25.3,2.5 42.2,4.2 17.4,1.7 25.8,12 25.8,29.7 0,18.2 0,27.4 0,45.6 -0.2,17.8 -8.7,26 -25.8,26 z m 15.1,-71.1 c 0,-12.1 -5.6,-18 -17.1,-19 -15.5,-1.4 -23.2,-2 -38.6,-3.4 -11.5,-1 -18,3.5 -18,17.2 0,18.6 0,27.8 0,46.4 0,13.4 6.9,18 18,18.1 15.6,0 23.1,0 38.8,0 10.6,0.1 16.9,-3.9 16.9,-15.8 0,-17.4 0,-26.1 0,-43.5 z"
   id="path6790"
   inkscape:connector-curvature="0" />

    </defs>

    <clipPath
   id="SVGID_10_-3">
        <use
   id="use6536"
   style="overflow:visible"
   xlink:href="#SVGID_9_-8"
   x="0"
   y="0"
   width="100%"
   height="100%" />

    </clipPath>

    <g
   id="g6547"
   clip-path="url(#SVGID_10_)"
   class="st4">
        <defs
   id="defs6540">
            <rect
   height="220.2"
   width="456.60001"
   y="19.4"
   x="20"
   id="rect6795" />

        </defs>

        <clipPath
   id="SVGID_12_-1">
            <use
   id="use6542"
   style="overflow:visible"
   xlink:href="#SVGID_11_-3"
   x="0"
   y="0"
   width="100%"
   height="100%" />

        </clipPath>

        <rect
   id="rect6545"
   clip-path="url(#SVGID_12_)"
   height="146.5"
   width="135.8"
   class="st5"
   y="43.900002"
   x="205.8"
   style="fill:#42474b" />

    </g>

</g>
      <g
         id="g6567">
    <defs
   id="defs6552">
        <path
   d="m 432,36.6 c -6.6,-1.1 -11.7,-1.9 -19.2,-0.5 -10,1.9 -31,6.6 -44.4,11.1 -2.4,0.7 -3.6,1.1 -6,1.9 -12.5,3.9 -21.5,6.9 -21.5,24.3 0,38.9 0,57.7 0,96.6 4.2,0 6.2,0 10.4,0 0,-33.3 0,-51.7 0,-81.2 15.9,1.3 23.9,2.1 41.9,3.6 v -10 c -18.1,-1.7 -26,-2.6 -41.9,-4.1 v -3.9 c 0,-10.3 3.5,-11.5 15.2,-15.3 2.5,-0.8 3.7,-1.2 6.2,-2 13.1,-4.4 33.6,-9.2 43.5,-11.2 5.7,-1.1 9.4,-0.6 15.6,0.4 1.7,0.3 2.6,0.4 4.4,0.6 V 37.3 C 434.5,37 433.6,36.8 432,36.6"
   id="path6803"
   inkscape:connector-curvature="0" />

    </defs>

    <clipPath
   id="SVGID_14_-3">
        <use
   id="use6554"
   style="overflow:visible"
   xlink:href="#SVGID_13_-3"
   x="0"
   y="0"
   width="100%"
   height="100%" />

    </clipPath>

    <g
   id="g6565"
   clip-path="url(#SVGID_14_)"
   class="st6">
        <defs
   id="defs6558">
            <rect
   height="220.2"
   width="456.60001"
   y="19.4"
   x="20"
   id="rect6808" />

        </defs>

        <clipPath
   id="SVGID_16_-4">
            <use
   id="use6560"
   style="overflow:visible"
   xlink:href="#SVGID_15_-9"
   x="0"
   y="0"
   width="100%"
   height="100%" />

        </clipPath>

        <rect
   id="rect6563"
   clip-path="url(#SVGID_16_)"
   height="175.39999"
   width="136"
   class="st7"
   y="14.9"
   x="320.5"
   style="fill:#42474b" />

    </g>

</g>
      <g
         id="g6585">
    <defs
   id="defs6570">
        <path
   d="m 140.1,124.6 c -19.7,2 -38.3,3.7 -58.1,5.8 -8.3,1 -14.6,6.9 -14.6,17 0,4.3 0.1,-0.6 0.1,3.7 0,7.8 5.8,13.6 15,13.6 14.5,0 29.1,0 43.6,0 11.1,0 14.3,-9.4 14.1,-18.3 -0.2,-9.3 -0.1,-12.3 -0.1,-21.8"
   id="path6816"
   inkscape:connector-curvature="0" />

    </defs>

    <clipPath
   id="SVGID_18_-5">
        <use
   id="use6572"
   style="overflow:visible"
   xlink:href="#SVGID_17_-9"
   x="0"
   y="0"
   width="100%"
   height="100%" />

    </clipPath>

    <g
   id="g6583"
   clip-path="url(#SVGID_18_)"
   class="st8">
        <defs
   id="defs6576">
            <rect
   height="220.2"
   width="456.60001"
   y="19.4"
   x="20"
   id="rect6821" />

        </defs>

        <clipPath
   id="SVGID_20_-8">
            <use
   id="use6578"
   style="overflow:visible"
   xlink:href="#SVGID_19_-2"
   x="0"
   y="0"
   width="100%"
   height="100%" />

        </clipPath>

        <rect
   id="rect6581"
   clip-path="url(#SVGID_20_)"
   height="80.900002"
   width="113.6"
   class="st9"
   y="104.2"
   x="46.900002"
   style="fill:#a42561" />

    </g>

</g>
      <g
         id="g6603">
    <defs
   id="defs6588">
        <path
   d="m 55.8,154.8 c 0,-5.3 0,-4.4 0,-9.8 0,-13.9 9.2,-23.2 24,-25.4 20.3,-2.8 60.8,-7.4 60.8,-7.4 V 100.4 C 141,90.3 135.1,83.6 124,86.1 c -18.4,3.1 -35.7,5.4 -54.8,8.8 0,-4.4 0,-6.6 0,-11.3 18.5,-3.6 30.4,-5.5 48.7,-9 28.1,-5.5 33.6,4.4 33.6,23.7 0,15.6 -0.2,22.5 -0.1,38.2 0,0 0,3.7 0,8.1 0,12.8 6.6,18.4 9.3,19.2 1.1,-2.4 1.3,-5.5 1.3,-9.3 0,-10.7 0,-95.1 0,-114.3 0,-19.3 -13.8,-13.9 -26.1,-11 C 123.5,32 61,48.3 41.1,53.3 c -19.9,5 -20.7,11.5 -20.7,23.4 0,28.4 0,69.2 0,72.8 0,18.4 5.2,20.5 20.1,20.5 4.1,0 12.3,0 22.3,0 -4.2,-3.7 -7.1,-8.9 -7,-15.2"
   id="path6829"
   inkscape:connector-curvature="0" />

    </defs>

    <clipPath
   id="SVGID_22_-5">
        <use
   id="use6590"
   style="overflow:visible"
   xlink:href="#SVGID_21_-2"
   x="0"
   y="0"
   width="100%"
   height="100%" />

    </clipPath>

    <g
   id="g6601"
   clip-path="url(#SVGID_22_)"
   class="st10">
        <defs
   id="defs6594">
            <rect
   height="220.2"
   width="456.60001"
   y="19.4"
   x="20"
   id="rect6834" />

        </defs>

        <clipPath
   id="SVGID_24_-7">
            <use
   id="use6596"
   style="overflow:visible"
   xlink:href="#SVGID_23_-1"
   x="0"
   y="0"
   width="100%"
   height="100%" />

        </clipPath>

        <rect
   id="rect6599"
   clip-path="url(#SVGID_24_)"
   height="184.8"
   width="182.3"
   class="st11"
   y="5.6999998"
   x="0"
   style="fill:#a42561" />

    </g>

</g>
      <g
         id="g6621">
    <defs
   id="defs6606">
        <polyline
   points="145.8,208 151,208 151,219.8 164.6,219.8 164.6,208 169.8,208 169.8,237.5 164.6,237.5             164.6,224.5 151,224.5 151,237.5 145.8,237.5 145.8,208       "
   id="polyline6842" />

    </defs>

    <clipPath
   id="SVGID_26_-2">
        <use
   id="use6608"
   style="overflow:visible"
   xlink:href="#SVGID_25_-9"
   x="0"
   y="0"
   width="100%"
   height="100%" />

    </clipPath>

    <g
   id="g6619"
   clip-path="url(#SVGID_26_)"
   class="st12">
        <defs
   id="defs6612">
            <rect
   height="220.2"
   width="456.60001"
   y="19.4"
   x="20"
   id="rect6847" />

        </defs>

        <clipPath
   id="SVGID_28_-7">
            <use
   id="use6614"
   style="overflow:visible"
   xlink:href="#SVGID_27_-3"
   x="0"
   y="0"
   width="100%"
   height="100%" />

        </clipPath>

        <rect
   id="rect6617"
   clip-path="url(#SVGID_28_)"
   height="70.199997"
   width="64.699997"
   class="st13"
   y="187.7"
   x="125.4"
   style="fill:#42474b" />

    </g>

</g>
      <g
         id="g6639">
    <defs
   id="defs6624">
        <path
   d="m 203.8,207.3 c 9.1,-0.2 15.5,6 15.5,15.4 0,9.2 -6.4,15.3 -15.5,15.5 -9,0 -15.4,-6.1 -15.4,-15.3 0,-9.4 6.4,-15.6 15.4,-15.6 z m 0,26.2 c 6.1,0 10,-4.7 10,-10.9 0,-5.8 -4,-10.5 -10,-10.5 -6,0 -10,4.6 -10,10.5 0,6.2 4,10.9 10,10.9 z"
   id="path6855"
   inkscape:connector-curvature="0" />

    </defs>

    <clipPath
   id="SVGID_30_-9">
        <use
   id="use6626"
   style="overflow:visible"
   xlink:href="#SVGID_29_-2"
   x="0"
   y="0"
   width="100%"
   height="100%" />

    </clipPath>

    <g
   id="g6637"
   clip-path="url(#SVGID_30_)"
   class="st14">
        <defs
   id="defs6630">
            <rect
   height="220.2"
   width="456.60001"
   y="19.4"
   x="20"
   id="rect6860" />

        </defs>

        <clipPath
   id="SVGID_32_-5">
            <use
   id="use6632"
   style="overflow:visible"
   xlink:href="#SVGID_31_-6"
   x="0"
   y="0"
   width="100%"
   height="100%" />

        </clipPath>

        <rect
   id="rect6635"
   clip-path="url(#SVGID_32_)"
   height="71.699997"
   width="71.699997"
   class="st15"
   y="186.89999"
   x="168"
   style="fill:#42474b" />

    </g>

</g>
      <g
         id="g6657">
    <defs
   id="defs6642">
        <polyline
   points="243.8,212.8 234.9,212.8 234.9,208 257.9,208 257.9,212.8 249,212.8 249,237.5 243.8,237.5             243.8,212.8         "
   id="polyline6868" />

    </defs>

    <clipPath
   id="SVGID_34_-3">
        <use
   id="use6644"
   style="overflow:visible"
   xlink:href="#SVGID_33_-3"
   x="0"
   y="0"
   width="100%"
   height="100%" />

    </clipPath>

    <g
   id="g6655"
   clip-path="url(#SVGID_34_)"
   class="st16">
        <defs
   id="defs6648">
            <rect
   height="220.2"
   width="456.60001"
   y="19.4"
   x="20"
   id="rect6873" />

        </defs>

        <clipPath
   id="SVGID_36_-1">
            <use
   id="use6650"
   style="overflow:visible"
   xlink:href="#SVGID_35_-8"
   x="0"
   y="0"
   width="100%"
   height="100%" />

        </clipPath>

        <rect
   id="rect6653"
   clip-path="url(#SVGID_36_)"
   height="70.199997"
   width="63.799999"
   class="st17"
   y="187.7"
   x="214.5"
   style="fill:#42474b" />

    </g>

</g>
      <g
         id="g6675">
    <defs
   id="defs6660">
        <polyline
   points="275.1,208 294.4,208 294.4,212.8 280.3,212.8 280.3,220 293.7,220 293.7,224.7 280.3,224.7             280.3,232.7 295.1,232.7 295.1,237.5 275.1,237.5 275.1,208       "
   id="polyline6881" />

    </defs>

    <clipPath
   id="SVGID_38_-1">
        <use
   id="use6662"
   style="overflow:visible"
   xlink:href="#SVGID_37_-4"
   x="0"
   y="0"
   width="100%"
   height="100%" />

    </clipPath>

    <g
   id="g6673"
   clip-path="url(#SVGID_38_)"
   class="st18">
        <defs
   id="defs6666">
            <rect
   height="220.2"
   width="456.60001"
   y="19.4"
   x="20"
   id="rect6886" />

        </defs>

        <clipPath
   id="SVGID_40_-2">
            <use
   id="use6668"
   style="overflow:visible"
   xlink:href="#SVGID_39_-8"
   x="0"
   y="0"
   width="100%"
   height="100%" />

        </clipPath>

        <rect
   id="rect6671"
   clip-path="url(#SVGID_40_)"
   height="70.199997"
   width="60.799999"
   class="st19"
   y="187.7"
   x="254.7"
   style="fill:#42474b" />

    </g>

</g>
      <g
         id="g6693">
    <defs
   id="defs6678">
        <polyline
   points="313.9,208 319.1,208 319.1,232.7 331.5,232.7 331.5,237.5 313.9,237.5 313.9,208      "
   id="polyline6894" />

    </defs>

    <clipPath
   id="SVGID_42_-7">
        <use
   id="use6680"
   style="overflow:visible"
   xlink:href="#SVGID_41_-0"
   x="0"
   y="0"
   width="100%"
   height="100%" />

    </clipPath>

    <g
   id="g6691"
   clip-path="url(#SVGID_42_)"
   class="st20">
        <defs
   id="defs6684">
            <rect
   height="220.2"
   width="456.60001"
   y="19.4"
   x="20"
   id="rect6899" />

        </defs>

        <clipPath
   id="SVGID_44_-0">
            <use
   id="use6686"
   style="overflow:visible"
   xlink:href="#SVGID_43_-2"
   x="0"
   y="0"
   width="100%"
   height="100%" />

        </clipPath>

        <rect
   id="rect6689"
   clip-path="url(#SVGID_44_)"
   height="70.199997"
   width="58.299999"
   class="st21"
   y="187.7"
   x="293.5"
   style="fill:#42474b" />

    </g>

</g>
      <g
         id="g6711">
    <defs
   id="defs6696">
        <path
   d="m 363.2,214.4 c -1.1,-1.6 -3.1,-2.3 -5.1,-2.3 -2.4,0 -4.8,1.1 -4.8,3.8 0,5.9 13.8,2.5 13.8,13 0,6.3 -4.9,9.4 -10.6,9.4 -3.6,0 -7.1,-1.1 -9.5,-4 l 3.9,-3.8 c 1.3,2 3.5,3.1 5.8,3.1 2.4,0 5.1,-1.3 5.1,-4 0,-6.4 -13.8,-2.8 -13.8,-13.3 0,-6.1 5.3,-8.9 10.7,-8.9 3,0 6.1,0.9 8.4,3 l -3.9,4"
   id="path6907"
   inkscape:connector-curvature="0" />

    </defs>

    <clipPath
   id="SVGID_46_-2">
        <use
   id="use6698"
   style="overflow:visible"
   xlink:href="#SVGID_45_-1"
   x="0"
   y="0"
   width="100%"
   height="100%" />

    </clipPath>

    <g
   id="g6709"
   clip-path="url(#SVGID_46_)"
   class="st22">
        <defs
   id="defs6702">
            <rect
   height="220.2"
   width="456.60001"
   y="19.4"
   x="20"
   id="rect6912" />

        </defs>

        <clipPath
   id="SVGID_48_-6">
            <use
   id="use6704"
   style="overflow:visible"
   xlink:href="#SVGID_47_-2"
   x="0"
   y="0"
   width="100%"
   height="100%" />

        </clipPath>

        <rect
   id="rect6707"
   clip-path="url(#SVGID_48_)"
   height="71.699997"
   width="61"
   class="st23"
   y="186.89999"
   x="326.5"
   style="fill:#42474b" />

    </g>

</g>
      <g
         id="g6729">
    <defs
   id="defs6714">
        <path
   d="m 468.7,86.3 c 4.2,0 7.7,3.4 7.7,7.8 0,4.4 -3.5,7.8 -7.7,7.8 -4.2,0 -7.7,-3.4 -7.7,-7.8 -0.1,-4.5 3.4,-7.8 7.7,-7.8 z m 0,14.4 c 3.5,0 6.3,-2.9 6.3,-6.7 0,-3.8 -2.8,-6.7 -6.3,-6.7 -3.5,0 -6.3,2.9 -6.3,6.7 -0.1,3.8 2.7,6.7 6.3,6.7 z m -3,-11.2 h 3.4 c 2.1,0 3.2,0.9 3.2,2.6 0,1.7 -1,2.3 -2.4,2.5 l 2.6,4 H 471 l -2.4,-3.9 h -1.5 v 3.9 h -1.4 z m 1.4,4.1 h 1.4 c 1.2,0 2.4,-0.1 2.4,-1.5 0,-1.3 -1.1,-1.4 -2,-1.4 h -1.8 z"
   id="path6920"
   inkscape:connector-curvature="0" />

    </defs>

    <clipPath
   id="SVGID_50_-2">
        <use
   id="use6716"
   style="overflow:visible"
   xlink:href="#SVGID_49_-2"
   x="0"
   y="0"
   width="100%"
   height="100%" />

    </clipPath>

    <g
   id="g6727"
   clip-path="url(#SVGID_50_)"
   class="st24">
        <defs
   id="defs6720">
            <rect
   height="220.2"
   width="456.60001"
   y="19.4"
   x="20"
   id="rect6925" />

        </defs>

        <clipPath
   id="SVGID_52_-4">
            <use
   id="use6722"
   style="overflow:visible"
   xlink:href="#SVGID_51_-5"
   x="0"
   y="0"
   width="100%"
   height="100%" />

        </clipPath>

        <rect
   id="rect6725"
   clip-path="url(#SVGID_52_)"
   height="56.400002"
   width="56.200001"
   class="st25"
   y="65.900002"
   x="440.5"
   style="fill:#42474b" />

    </g>

</g>
    </g>
  </g>
  <style
     id="style5713"
     type="text/css">
    .st0{clip-path:url(#SVGID_2_);}
    .st1{clip-path:url(#SVGID_4_);fill:#42474B;}
    .st2{clip-path:url(#SVGID_6_);}
    .st3{clip-path:url(#SVGID_8_);fill:#42474B;}
    .st4{clip-path:url(#SVGID_10_);}
    .st5{clip-path:url(#SVGID_12_);fill:#42474B;}
    .st6{clip-path:url(#SVGID_14_);}
    .st7{clip-path:url(#SVGID_16_);fill:#42474B;}
    .st8{clip-path:url(#SVGID_18_);}
    .st9{clip-path:url(#SVGID_20_);fill:#a42561;}
    .st10{clip-path:url(#SVGID_22_);}
    .st11{clip-path:url(#SVGID_24_);fill:#a42561;}
    .st12{clip-path:url(#SVGID_26_);}
    .st13{clip-path:url(#SVGID_28_);fill:#42474B;}
    .st14{clip-path:url(#SVGID_30_);}
    .st15{clip-path:url(#SVGID_32_);fill:#42474B;}
    .st16{clip-path:url(#SVGID_34_);}
    .st17{clip-path:url(#SVGID_36_);fill:#42474B;}
    .st18{clip-path:url(#SVGID_38_);}
    .st19{clip-path:url(#SVGID_40_);fill:#42474B;}
    .st20{clip-path:url(#SVGID_42_);}
    .st21{clip-path:url(#SVGID_44_);fill:#42474B;}
    .st22{clip-path:url(#SVGID_46_);}
    .st23{clip-path:url(#SVGID_48_);fill:#42474B;}
    .st24{clip-path:url(#SVGID_50_);}
    .st25{clip-path:url(#SVGID_52_);fill:#42474B;}
    .st26{clip-path:url(#SVGID_54_);}
    .st27{clip-path:url(#SVGID_56_);fill:#42474B;}
    .st28{clip-path:url(#SVGID_58_);}
    .st29{clip-path:url(#SVGID_60_);fill:#42474B;}
    .st30{clip-path:url(#SVGID_62_);}
    .st31{clip-path:url(#SVGID_64_);fill:#42474B;}
    .st32{clip-path:url(#SVGID_66_);}
    .st33{clip-path:url(#SVGID_68_);fill:#42474B;}
    .st34{clip-path:url(#SVGID_70_);}
    .st35{clip-path:url(#SVGID_72_);fill:#a42561;}
    .st36{clip-path:url(#SVGID_74_);}
    .st37{clip-path:url(#SVGID_76_);fill:#a42561;}
    .st38{clip-path:url(#SVGID_78_);}
    .st39{clip-path:url(#SVGID_80_);fill:#42474B;}
    .st40{clip-path:url(#SVGID_82_);}
    .st41{clip-path:url(#SVGID_84_);fill:#42474B;}
    .st42{clip-path:url(#SVGID_86_);}
    .st43{clip-path:url(#SVGID_88_);fill:#42474B;}
    .st44{clip-path:url(#SVGID_90_);}
    .st45{clip-path:url(#SVGID_92_);fill:#42474B;}
    .st46{clip-path:url(#SVGID_94_);}
    .st47{clip-path:url(#SVGID_96_);fill:#42474B;}
    .st48{clip-path:url(#SVGID_98_);}
    .st49{clip-path:url(#SVGID_100_);fill:#42474B;}
    .st50{clip-path:url(#SVGID_102_);}
    .st51{clip-path:url(#SVGID_104_);fill:#42474B;}
</style>
  <style
     id="style6493"
     type="text/css">
    .st0{clip-path:url(#SVGID_2_);}
    .st1{clip-path:url(#SVGID_4_);fill:#42474B;}
    .st2{clip-path:url(#SVGID_6_);}
    .st3{clip-path:url(#SVGID_8_);fill:#42474B;}
    .st4{clip-path:url(#SVGID_10_);}
    .st5{clip-path:url(#SVGID_12_);fill:#42474B;}
    .st6{clip-path:url(#SVGID_14_);}
    .st7{clip-path:url(#SVGID_16_);fill:#42474B;}
    .st8{clip-path:url(#SVGID_18_);}
    .st9{clip-path:url(#SVGID_20_);fill:#a42561;}
    .st10{clip-path:url(#SVGID_22_);}
    .st11{clip-path:url(#SVGID_24_);fill:#a42561;}
    .st12{clip-path:url(#SVGID_26_);}
    .st13{clip-path:url(#SVGID_28_);fill:#42474B;}
    .st14{clip-path:url(#SVGID_30_);}
    .st15{clip-path:url(#SVGID_32_);fill:#42474B;}
    .st16{clip-path:url(#SVGID_34_);}
    .st17{clip-path:url(#SVGID_36_);fill:#42474B;}
    .st18{clip-path:url(#SVGID_38_);}
    .st19{clip-path:url(#SVGID_40_);fill:#42474B;}
    .st20{clip-path:url(#SVGID_42_);}
    .st21{clip-path:url(#SVGID_44_);fill:#42474B;}
    .st22{clip-path:url(#SVGID_46_);}
    .st23{clip-path:url(#SVGID_48_);fill:#42474B;}
    .st24{clip-path:url(#SVGID_50_);}
    .st25{clip-path:url(#SVGID_52_);fill:#42474B;}
    .st26{clip-path:url(#SVGID_54_);}
    .st27{clip-path:url(#SVGID_56_);fill:#42474B;}
    .st28{clip-path:url(#SVGID_58_);}
    .st29{clip-path:url(#SVGID_60_);fill:#42474B;}
    .st30{clip-path:url(#SVGID_62_);}
    .st31{clip-path:url(#SVGID_64_);fill:#42474B;}
    .st32{clip-path:url(#SVGID_66_);}
    .st33{clip-path:url(#SVGID_68_);fill:#42474B;}
    .st34{clip-path:url(#SVGID_70_);}
    .st35{clip-path:url(#SVGID_72_);fill:#a42561;}
    .st36{clip-path:url(#SVGID_74_);}
    .st37{clip-path:url(#SVGID_76_);fill:#a42561;}
    .st38{clip-path:url(#SVGID_78_);}
    .st39{clip-path:url(#SVGID_80_);fill:#42474B;}
    .st40{clip-path:url(#SVGID_82_);}
    .st41{clip-path:url(#SVGID_84_);fill:#42474B;}
    .st42{clip-path:url(#SVGID_86_);}
    .st43{clip-path:url(#SVGID_88_);fill:#42474B;}
    .st44{clip-path:url(#SVGID_90_);}
    .st45{clip-path:url(#SVGID_92_);fill:#42474B;}
    .st46{clip-path:url(#SVGID_94_);}
    .st47{clip-path:url(#SVGID_96_);fill:#42474B;}
    .st48{clip-path:url(#SVGID_98_);}
    .st49{clip-path:url(#SVGID_100_);fill:#42474B;}
    .st50{clip-path:url(#SVGID_102_);}
    .st51{clip-path:url(#SVGID_104_);fill:#42474B;}
</style>
</svg>
